<svg width="91" height="91" viewBox="0 0 91 91" fill="none" xmlns="http://www.w3.org/2000/svg">
<path d="M83.4167 49.2916V64.4583C83.4167 77.7291 75.8333 83.4166 64.4583 83.4166H26.5417C15.1667 83.4166 7.58333 77.7291 7.58333 64.4583V49.2916C7.58333 39.2437 11.9437 33.5563 18.9583 31.3951C21.2333 30.6747 23.7737 30.3333 26.5417 30.3333H64.4583C67.2263 30.3333 69.7667 30.6747 72.0417 31.3951C79.0563 33.5563 83.4167 39.2437 83.4167 49.2916Z" stroke="#3A4F7A" stroke-width="5" stroke-miterlimit="10" stroke-linecap="round" stroke-linejoin="round"/>
<path d="M72.0417 26.5416V31.3951C69.7667 30.6747 67.2263 30.3333 64.4583 30.3333H26.5417C23.7738 30.3333 21.2333 30.6747 18.9583 31.3951V26.5416C18.9583 22.3708 22.3708 18.9583 26.5417 18.9583H64.4583C68.6292 18.9583 72.0417 22.3708 72.0417 26.5416Z" stroke="#3A4F7A" stroke-width="5" stroke-miterlimit="10" stroke-linecap="round" stroke-linejoin="round"/>
<path d="M60.6667 13.3088V18.9583H30.3333V13.3088C30.3333 10.1617 32.9117 7.58331 36.0588 7.58331H54.9412C58.0883 7.58331 60.6667 10.1617 60.6667 13.3088Z" stroke="#3A4F7A" stroke-width="5" stroke-miterlimit="10" stroke-linecap="round" stroke-linejoin="round"/>
<path d="M34.3904 73.748C37.1546 73.748 39.3955 71.5071 39.3955 68.7429C39.3955 65.9788 37.1546 63.7379 34.3904 63.7379C31.6263 63.7379 29.3854 65.9788 29.3854 68.7429C29.3854 71.5071 31.6263 73.748 34.3904 73.748Z" stroke="#3A4F7A" stroke-width="5" stroke-linecap="round" stroke-linejoin="round"/>
<path d="M57.8229 65.4062V45.8033C57.8229 41.6325 55.2066 41.0258 52.5524 41.7842L42.5047 44.514C40.6847 45.007 39.4334 46.4478 39.4334 48.5332V52.0215V54.3725V68.7429" stroke="#3A4F7A" stroke-width="5" stroke-linecap="round" stroke-linejoin="round"/>
<path d="M52.8179 70.4113C55.5821 70.4113 57.8229 68.1705 57.8229 65.4063C57.8229 62.6421 55.5821 60.4012 52.8179 60.4012C50.0537 60.4012 47.8129 62.6421 47.8129 65.4063C47.8129 68.1705 50.0537 70.4113 52.8179 70.4113Z" stroke="#3A4F7A" stroke-width="5" stroke-linecap="round" stroke-linejoin="round"/>
<path d="M39.4334 54.4103L57.8229 49.4055" stroke="#3A4F7A" stroke-width="5" stroke-linecap="round" stroke-linejoin="round"/>
</svg>
