<svg width="100" height="100" viewBox="0 0 100 100" fill="none" xmlns="http://www.w3.org/2000/svg">
<path d="M54.0417 73.375L45.25 64.5833" stroke="#3A4F7A" stroke-width="6" stroke-miterlimit="10" stroke-linecap="round" stroke-linejoin="round"/>
<path d="M53.9581 64.6667L45.1248 73.5001" stroke="#3A4F7A" stroke-width="6" stroke-miterlimit="10" stroke-linecap="round" stroke-linejoin="round"/>
<path d="M23.0835 46.3333C3.5835 47.7083 3.5835 76.0833 23.0835 77.4583H31.0835" stroke="#3A4F7A" stroke-width="6" stroke-miterlimit="10" stroke-linecap="round" stroke-linejoin="round"/>
<path d="M23.2918 46.3334C9.91682 9.12508 66.3335 -5.7499 72.7918 33.3334C90.8335 35.6251 98.1252 59.6668 84.4585 71.6251C80.2918 75.4168 74.9168 77.5001 69.2918 77.4584H68.9168" stroke="#3A4F7A" stroke-width="6" stroke-miterlimit="10" stroke-linecap="round" stroke-linejoin="round"/>
<path d="M70.8333 68.8751C70.8333 71.9585 70.1666 74.8751 68.9166 77.4585C68.5833 78.2085 68.2083 78.9168 67.7916 79.5835C64.2083 85.6252 57.5833 89.7085 50 89.7085C42.4166 89.7085 35.7916 85.6252 32.2083 79.5835C31.7916 78.9168 31.4166 78.2085 31.0833 77.4585C29.8333 74.8751 29.1666 71.9585 29.1666 68.8751C29.1666 57.3751 38.5 48.0418 50 48.0418C61.5 48.0418 70.8333 57.3751 70.8333 68.8751Z" stroke="#3A4F7A" stroke-width="6" stroke-miterlimit="10" stroke-linecap="round" stroke-linejoin="round"/>
</svg>
