<svg width="115" height="115" viewBox="0 0 115 115" fill="none" xmlns="http://www.w3.org/2000/svg">
<path d="M18.0166 34.5958V80.452C18.0166 89.8437 28.2228 95.7374 36.3686 91.0416L56.254 79.5894L76.1395 68.0895C84.2854 63.3936 84.2854 51.654 76.1395 46.9582L56.254 35.4582L36.3686 24.0062C28.2228 19.3104 18.0166 25.1562 18.0166 34.5958Z" stroke="#3A4F7A" stroke-width="6" stroke-linecap="round" stroke-linejoin="round"/>
<path d="M96.9832 87.1136V27.8887" stroke="#3A4F7A" stroke-width="6" stroke-linecap="round" stroke-linejoin="round"/>
<path d="M46.1041 57.5828C46.3666 61.6683 43.2717 65.1881 39.1861 65.4505C35.1006 65.713 31.5808 62.6181 31.3184 58.5325C31.0559 54.447 34.1508 50.9272 38.2364 50.6648" stroke="#3A4F7A" stroke-width="1.5" stroke-linecap="round" stroke-linejoin="round"/>
<path d="M44.0113 63.2339C41.1508 66.1627 36.4642 66.218 33.5354 63.3574C30.6066 60.4969 30.5514 55.8103 33.4119 52.8815C36.2725 49.9527 40.9591 49.8975 43.8878 52.758" stroke="#3A4F7A" stroke-width="1.5" stroke-linecap="round" stroke-linejoin="round"/>
<path d="M46.1542 58.361C45.8917 54.2755 48.9866 50.7557 53.0722 50.4933C57.1577 50.2308 60.6775 53.3257 60.9399 57.4113C61.2024 61.4968 58.1075 65.0166 54.0219 65.279" stroke="#3A4F7A" stroke-width="1.5" stroke-linecap="round" stroke-linejoin="round"/>
<path d="M48.5728 52.3962C51.6068 49.6476 56.288 49.8785 59.0367 52.9125C61.7854 55.9465 61.5544 60.6278 58.5204 63.3765C55.4864 66.1252 50.8051 65.8942 48.0565 62.8602" stroke="#3A4F7A" stroke-width="1.5" stroke-linecap="round" stroke-linejoin="round"/>
</svg>
