<svg width="28" height="28" viewBox="0 0 28 28" fill="none" xmlns="http://www.w3.org/2000/svg">
<g clip-path="url(#clip0_231_821)">
<path d="M25.1987 0H2.30134C1.03034 0 0 1.01441 0 2.26575V24.8089C0 26.0603 1.03034 27.0747 2.30134 27.0747H25.1987C26.4697 27.0747 27.5 26.0603 27.5 24.8089V2.26575C27.5 1.01441 26.4697 0 25.1987 0Z" fill="url(#paint0_linear_231_821)" fill-opacity="0.31"/>
<g opacity="0.6">
<path d="M13.732 4.98183C8.87182 4.98183 4.93384 8.86072 4.93384 13.6439C4.93384 18.4271 8.87366 22.306 13.732 22.306C18.5903 22.306 22.5302 18.4271 22.5302 13.6439C22.5302 8.86072 18.5922 4.98183 13.732 4.98183ZM13.732 20.1437C12.4266 20.1437 11.1506 19.7626 10.0652 19.0486C8.97987 18.3346 8.13393 17.3197 7.63439 16.1324C7.13485 14.945 7.00415 13.6385 7.25881 12.378C7.51347 11.1176 8.14206 9.95976 9.06509 9.05101C9.98812 8.14225 11.1641 7.52339 12.4444 7.27266C13.7247 7.02194 15.0517 7.15062 16.2577 7.64243C17.4637 8.13424 18.4945 8.9671 19.2197 10.0357C19.9449 11.1043 20.332 12.3606 20.332 13.6457C20.332 15.3691 19.6366 17.0219 18.3989 18.2405C17.1612 19.4591 15.4824 20.1437 13.732 20.1437Z" fill="white"/>
</g>
<g opacity="0.6">
<path d="M13.732 9.31378C12.8618 9.31378 12.0111 9.56785 11.2875 10.0438C10.5639 10.5198 9.99999 11.1964 9.66696 11.988C9.33394 12.7795 9.2468 13.6505 9.41658 14.4909C9.58635 15.3312 10.0054 16.1031 10.6208 16.7089C11.2361 17.3147 12.0201 17.7273 12.8736 17.8944C13.7272 18.0616 14.6118 17.9758 15.4158 17.6479C16.2198 17.3201 16.907 16.7648 17.3905 16.0524C17.874 15.3401 18.132 14.5025 18.132 13.6457C18.132 12.4968 17.6685 11.395 16.8433 10.5826C16.0181 9.77018 14.899 9.31378 13.732 9.31378ZM13.732 15.8117C13.2969 15.8117 12.8716 15.6847 12.5098 15.4467C12.148 15.2087 11.866 14.8704 11.6995 14.4746C11.533 14.0788 11.4894 13.6433 11.5743 13.2232C11.6592 12.803 11.8687 12.4171 12.1764 12.1142C12.4841 11.8112 12.8761 11.605 13.3028 11.5214C13.7296 11.4378 14.1719 11.4807 14.5739 11.6446C14.9759 11.8086 15.3195 12.0862 15.5613 12.4424C15.803 12.7986 15.932 13.2173 15.932 13.6457C15.932 14.2202 15.7002 14.7711 15.2877 15.1773C14.8751 15.5835 14.3155 15.8117 13.732 15.8117Z" fill="white"/>
</g>
<path d="M20.1496 15.1677C19.8106 16.5543 19.0179 17.7926 17.8937 18.6918C16.7694 19.5911 15.3759 20.1014 13.928 20.144C12.4801 20.1867 11.0582 19.7594 9.8813 18.9279C8.70442 18.0964 7.83793 16.907 7.41539 15.5429C6.99285 14.1788 7.03769 12.7157 7.54302 11.3792C8.04834 10.0426 8.9861 8.90677 10.2118 8.1467C11.4374 7.38662 12.883 7.04448 14.3256 7.17302C15.7683 7.30156 17.1279 7.89364 18.1951 8.858C18.2216 8.89134 18.2501 8.92314 18.2803 8.95324C18.3818 9.05513 18.5029 9.13619 18.6364 9.19175C18.77 9.2473 18.9134 9.27625 19.0584 9.27692C19.2034 9.27759 19.347 9.24996 19.4811 9.19563C19.6152 9.14131 19.737 9.06136 19.8395 8.96042C19.942 8.85947 20.0232 8.73952 20.0783 8.60751C20.1334 8.4755 20.1614 8.33403 20.1607 8.1913C20.16 8.04856 20.1306 7.90738 20.0741 7.77591C20.0176 7.64444 19.9353 7.5253 19.8317 7.42536L19.823 7.41765L19.8368 7.4045C18.1991 5.84755 16.0105 4.97876 13.7338 4.98183C8.87365 4.98183 4.93567 8.86072 4.93567 13.6439C4.93567 18.4271 8.87549 22.306 13.7338 22.306C15.2743 22.3066 16.7878 21.9089 18.1232 21.1528C19.4585 20.3968 20.5688 19.3088 21.3431 17.9976L20.1496 15.1677Z" fill="#ECECEC"/>
<path d="M22.5252 21.179L19.485 13.0063C19.4391 12.8787 19.3543 12.7682 19.2421 12.6901C19.13 12.6119 18.9959 12.5698 18.8585 12.5695L14.8325 12.5623C14.5408 12.5623 14.261 12.6764 14.0547 12.8795C13.8484 13.0826 13.7325 13.3581 13.7325 13.6453C13.7325 13.9325 13.8484 14.208 14.0547 14.4111C14.261 14.6142 14.5408 14.7283 14.8325 14.7283H17.3168C17.4532 14.7282 17.5864 14.7696 17.6981 14.8468C17.8098 14.924 17.8946 15.0332 17.9409 15.1596L20.5527 21.8761C20.6803 22.2003 21.0972 22.4203 21.4325 22.3092L22.2488 21.9953C22.6012 21.8797 22.6546 21.5219 22.5252 21.179Z" fill="#A8A8A8"/>
</g>
<defs>
<linearGradient id="paint0_linear_231_821" x1="-1.29623" y1="3.98773" x2="40.179" y2="31.1451" gradientUnits="userSpaceOnUse">
<stop stop-color="#7A7A7A" stop-opacity="0.37"/>
<stop offset="0.22" stop-color="#686868" stop-opacity="0.54"/>
<stop offset="0.5" stop-color="#6F6F6F" stop-opacity="0.46"/>
<stop offset="0.81" stop-color="#747474" stop-opacity="0.19"/>
<stop offset="0.83" stop-color="#707070" stop-opacity="0.27"/>
</linearGradient>
<clipPath id="clip0_231_821">
<rect width="27.5" height="27.0747" fill="white"/>
</clipPath>
</defs>
</svg>
