<svg width="100" height="100" viewBox="0 0 100 100" fill="none" xmlns="http://www.w3.org/2000/svg">
<path d="M51.4584 87.4999H36.0417C16.25 87.4999 8.33337 79.5831 8.33337 59.7915V36.0417C8.33337 16.25 16.25 8.33325 36.0417 8.33325H59.7917C79.5834 8.33325 87.5 16.25 87.5 36.0417V51.4581" stroke="#586175" stroke-width="6" stroke-linecap="round" stroke-linejoin="round"/>
<path d="M28 60.0832C31.3367 60.0832 34.0417 57.3782 34.0417 54.0415C34.0417 50.7047 31.3367 48 28 48C24.6633 48 21.9584 50.7047 21.9584 54.0415C21.9584 57.3782 24.6633 60.0832 28 60.0832Z" stroke="#586175" stroke-width="6" stroke-linecap="round" stroke-linejoin="round"/>
<path d="M56.1668 49.9999V26.4167C56.1668 21.375 53.0002 20.7082 49.8336 21.5832L37.7919 24.8748C35.6252 25.4581 34.0835 27.2083 34.0835 29.7083V33.9167V36.75V54.0415" stroke="#586175" stroke-width="6" stroke-linecap="round" stroke-linejoin="round"/>
<path d="M50.1248 56.0419C53.4615 56.0419 56.1664 53.3369 56.1664 50.0002C56.1664 46.6635 53.4615 43.9585 50.1248 43.9585C46.7881 43.9585 44.0831 46.6635 44.0831 50.0002C44.0831 53.3369 46.7881 56.0419 50.1248 56.0419Z" stroke="#586175" stroke-width="6" stroke-linecap="round" stroke-linejoin="round"/>
<path d="M34.0419 36.7912L56.1669 30.7495" stroke="#586175" stroke-width="6" stroke-linecap="round" stroke-linejoin="round"/>
<path d="M74.7499 88.6663C82.1137 88.6663 88.0833 82.6967 88.0833 75.3329C88.0833 67.9691 82.1137 61.9995 74.7499 61.9995C67.3861 61.9995 61.4166 67.9691 61.4166 75.3329C61.4166 82.6967 67.3861 88.6663 74.7499 88.6663Z" stroke="#586175" stroke-width="6" stroke-linecap="round" stroke-linejoin="round"/>
<path d="M90.5833 91.1662L86.4166 86.9995" stroke="#586175" stroke-width="6" stroke-linecap="round" stroke-linejoin="round"/>
</svg>
