<svg width="24" height="25" viewBox="0 0 24 25" fill="none" xmlns="http://www.w3.org/2000/svg">
<path d="M17 22.7969H7C4 22.7969 2 21.2969 2 17.7969V12.7969C2 9.29688 4 7.79688 7 7.79688H17C20 7.79688 22 9.29688 22 12.7969V17.7969C22 21.2969 20 22.7969 17 22.7969Z" stroke="#505050" stroke-width="1.5" stroke-miterlimit="10" stroke-linecap="round" stroke-linejoin="round"/>
<path d="M6 5.29688H18" stroke="#505050" stroke-width="1.5" stroke-miterlimit="10" stroke-linecap="round" stroke-linejoin="round"/>
<path d="M9 2.79688H15" stroke="#505050" stroke-width="1.5" stroke-miterlimit="10" stroke-linecap="round" stroke-linejoin="round"/>
<path d="M8.89001 19.9069C9.64664 19.9069 10.26 19.2935 10.26 18.5369C10.26 17.7802 9.64664 17.1669 8.89001 17.1669C8.13338 17.1669 7.52002 17.7802 7.52002 18.5369C7.52002 19.2935 8.13338 19.9069 8.89001 19.9069Z" stroke="#505050" stroke-width="1.5" stroke-linecap="round" stroke-linejoin="round"/>
<path d="M15.28 17.6269V12.2769C15.28 11.1369 14.57 10.9769 13.84 11.1769L11.1 11.9269C10.6 12.0669 10.26 12.4569 10.26 13.0269V13.9769V14.6169V18.5369" stroke="#505050" stroke-width="1.5" stroke-linecap="round" stroke-linejoin="round"/>
<path d="M13.91 18.9969C14.6666 18.9969 15.28 18.3835 15.28 17.6269C15.28 16.8703 14.6666 16.2569 13.91 16.2569C13.1533 16.2569 12.54 16.8703 12.54 17.6269C12.54 18.3835 13.1533 18.9969 13.91 18.9969Z" stroke="#505050" stroke-width="1.5" stroke-linecap="round" stroke-linejoin="round"/>
<path d="M10.26 14.6269L15.28 13.2569" stroke="#505050" stroke-width="1.5" stroke-linecap="round" stroke-linejoin="round"/>
</svg>
