<svg width="24" height="25" viewBox="0 0 24 25" fill="none" xmlns="http://www.w3.org/2000/svg">
<path d="M9 22.7969H15C20 22.7969 22 20.7969 22 15.7969V9.79688C22 4.79688 20 2.79688 15 2.79688H9C4 2.79688 2 4.79688 2 9.79688V15.7969C2 20.7969 4 22.7969 9 22.7969Z" stroke="#292D32" stroke-width="1.5" stroke-linecap="round" stroke-linejoin="round"/>
<path d="M15.57 19.2969V15.3969" stroke="#292D32" stroke-width="1.5" stroke-miterlimit="10" stroke-linecap="round" stroke-linejoin="round"/>
<path d="M15.57 8.24687V6.29688" stroke="#292D32" stroke-width="1.5" stroke-miterlimit="10" stroke-linecap="round" stroke-linejoin="round"/>
<path d="M15.57 13.4469C17.0059 13.4469 18.17 12.2828 18.17 10.8469C18.17 9.41095 17.0059 8.24689 15.57 8.24689C14.134 8.24689 12.97 9.41095 12.97 10.8469C12.97 12.2828 14.134 13.4469 15.57 13.4469Z" stroke="#292D32" stroke-width="1.5" stroke-miterlimit="10" stroke-linecap="round" stroke-linejoin="round"/>
<path d="M8.42999 19.2969V17.3469" stroke="#292D32" stroke-width="1.5" stroke-miterlimit="10" stroke-linecap="round" stroke-linejoin="round"/>
<path d="M8.42999 10.1969V6.29688" stroke="#292D32" stroke-width="1.5" stroke-miterlimit="10" stroke-linecap="round" stroke-linejoin="round"/>
<path d="M8.43002 17.3468C9.86596 17.3468 11.03 16.1828 11.03 14.7469C11.03 13.3109 9.86596 12.1469 8.43002 12.1469C6.99408 12.1469 5.83002 13.3109 5.83002 14.7469C5.83002 16.1828 6.99408 17.3468 8.43002 17.3468Z" stroke="#292D32" stroke-width="1.5" stroke-miterlimit="10" stroke-linecap="round" stroke-linejoin="round"/>
</svg>
