<svg width="36" height="36" viewBox="0 0 36 36" fill="none" xmlns="http://www.w3.org/2000/svg">
<g clip-path="url(#clip0_66_14)">
<path d="M32.321 0.845825H3.17898C1.56135 0.845825 0.25 2.15717 0.25 3.7748V32.9168C0.25 34.5345 1.56135 35.8458 3.17898 35.8458H32.321C33.9387 35.8458 35.25 34.5345 35.25 32.9168V3.7748C35.25 2.15717 33.9387 0.845825 32.321 0.845825Z" fill="url(#paint0_linear_66_14)"/>
<g opacity="0.6">
<path d="M17.7271 7.28589C11.5415 7.28589 6.52948 12.3002 6.52948 18.4835C6.52948 24.6669 11.5438 29.6812 17.7271 29.6812C23.9105 29.6812 28.9248 24.6669 28.9248 18.4835C28.9248 12.3002 23.9128 7.28589 17.7271 7.28589ZM17.7271 26.8859C16.0658 26.8859 14.4417 26.3932 13.0603 25.4702C11.679 24.5472 10.6023 23.2353 9.96655 21.7004C9.33077 20.1655 9.16442 18.4766 9.48854 16.8471C9.81265 15.2177 10.6127 13.721 11.7874 12.5462C12.9622 11.3714 14.4589 10.5714 16.0884 10.2473C17.7178 9.92318 19.4068 10.0895 20.9417 10.7253C22.4766 11.3611 23.7885 12.4377 24.7115 13.8191C25.6345 15.2005 26.1271 16.8245 26.1271 18.4859C26.1271 20.7137 25.2421 22.8503 23.6668 24.4256C22.0915 26.0009 19.955 26.8859 17.7271 26.8859Z" fill="white"/>
</g>
<g opacity="0.6">
<path d="M17.7271 12.886C16.6196 12.886 15.5369 13.2144 14.6159 13.8298C13.695 14.4451 12.9773 15.3197 12.5534 16.343C12.1296 17.3662 12.0187 18.4922 12.2347 19.5785C12.4508 20.6648 12.9842 21.6626 13.7673 22.4458C14.5505 23.229 15.5483 23.7623 16.6346 23.9784C17.7209 24.1945 18.8469 24.0836 19.8702 23.6597C20.8934 23.2359 21.768 22.5181 22.3834 21.5972C22.9987 20.6763 23.3271 19.5936 23.3271 18.486C23.3271 17.0008 22.7371 15.5764 21.6869 14.5262C20.6367 13.476 19.2124 12.886 17.7271 12.886ZM17.7271 21.286C17.1734 21.286 16.632 21.1218 16.1715 20.8141C15.7111 20.5064 15.3522 20.0691 15.1403 19.5575C14.9284 19.0459 14.8729 18.4829 14.9809 17.9397C15.089 17.3966 15.3557 16.8977 15.7472 16.5061C16.1388 16.1145 16.6377 15.8478 17.1809 15.7398C17.724 15.6317 18.287 15.6872 18.7987 15.8991C19.3103 16.111 19.7476 16.4699 20.0553 16.9304C20.3629 17.3908 20.5271 17.9322 20.5271 18.486C20.5271 19.2286 20.2321 19.9408 19.707 20.4659C19.1819 20.991 18.4697 21.286 17.7271 21.286Z" fill="white"/>
</g>
<path d="M25.8949 20.4534C25.4636 22.2458 24.4547 23.8466 23.0238 25.0091C21.5929 26.1716 19.8194 26.8313 17.9766 26.8864C16.1339 26.9415 14.3241 26.3891 12.8262 25.3143C11.3284 24.2394 10.2256 22.7018 9.68781 20.9384C9.15002 19.175 9.2071 17.2836 9.85024 15.5558C10.4934 13.8281 11.6869 12.3598 13.2468 11.3772C14.8068 10.3946 16.6466 9.95233 18.4826 10.1185C20.3187 10.2847 22.0492 11.05 23.4074 12.2967C23.4412 12.3398 23.4774 12.3809 23.5159 12.4198C23.6451 12.5515 23.7992 12.6563 23.9691 12.7281C24.1391 12.8 24.3216 12.8374 24.5062 12.8382C24.6907 12.8391 24.8735 12.8034 25.0442 12.7332C25.2148 12.6629 25.3698 12.5596 25.5003 12.4291C25.6307 12.2986 25.7341 12.1435 25.8042 11.9729C25.8744 11.8022 25.9101 11.6194 25.9091 11.4348C25.9082 11.2503 25.8708 11.0678 25.7989 10.8979C25.727 10.7279 25.6222 10.5739 25.4904 10.4447L25.4793 10.4347L25.4969 10.4177C23.4125 8.40503 20.627 7.28192 17.7295 7.2859C11.5438 7.2859 6.5318 12.3002 6.5318 18.4836C6.5318 24.6669 11.5461 29.6812 17.7295 29.6812C19.69 29.6819 21.6164 29.1679 23.3159 28.1905C25.0154 27.2131 26.4286 25.8066 27.414 24.1117L25.8949 20.4534Z" fill="#E98EAD"/>
<path d="M28.9183 28.2244L25.049 17.6593C24.9906 17.4944 24.8827 17.3516 24.7399 17.2505C24.5972 17.1494 24.4266 17.095 24.2517 17.0947L19.1277 17.0853C18.7564 17.0853 18.4003 17.2328 18.1378 17.4954C17.8752 17.7579 17.7277 18.114 17.7277 18.4853C17.7277 18.8566 17.8752 19.2127 18.1378 19.4753C18.4003 19.7378 18.7564 19.8853 19.1277 19.8853H22.2894C22.4631 19.8853 22.6326 19.9388 22.7748 20.0385C22.9169 20.1383 23.0249 20.2795 23.0838 20.4429L26.408 29.1254C26.5704 29.5446 27.1009 29.829 27.5277 29.6853L28.5666 29.2796C29.0151 29.1301 29.0831 28.6676 28.9183 28.2244Z" fill="#FF94B5"/>
</g>
<defs>
<linearGradient id="paint0_linear_66_14" x1="-1.39975" y1="6.00085" x2="51.8776" y2="40.3466" gradientUnits="userSpaceOnUse">
<stop stop-color="#3A4F7A"/>
<stop offset="0.22" stop-color="#3A4F7A" stop-opacity="0.95"/>
<stop offset="0.5" stop-color="#3A4F7A" stop-opacity="0.82"/>
<stop offset="0.81" stop-color="#3A4F7A" stop-opacity="0.61"/>
<stop offset="0.83" stop-color="#3A4F7A" stop-opacity="0.6"/>
</linearGradient>
<clipPath id="clip0_66_14">
<rect width="35" height="35" fill="white" transform="translate(0.25 0.845825)"/>
</clipPath>
</defs>
</svg>
