<svg width="24" height="25" viewBox="0 0 24 25" fill="none" xmlns="http://www.w3.org/2000/svg">
<path d="M12.35 21.7969H8.64999C3.89999 21.7969 2 19.8969 2 15.1469V9.4469C2 4.6969 3.89999 2.79688 8.64999 2.79688H14.35C19.1 2.79688 21 4.6969 21 9.4469V13.1469" stroke="#505050" stroke-width="1.5" stroke-linecap="round" stroke-linejoin="round"/>
<path d="M6.72002 15.2169C7.52083 15.2169 8.17001 14.5677 8.17001 13.7668C8.17001 12.966 7.52083 12.3169 6.72002 12.3169C5.9192 12.3169 5.27002 12.966 5.27002 13.7668C5.27002 14.5677 5.9192 15.2169 6.72002 15.2169Z" stroke="#505050" stroke-width="1.5" stroke-linecap="round" stroke-linejoin="round"/>
<path d="M13.48 12.7969V7.13688C13.48 5.92688 12.72 5.76685 11.96 5.97685L9.07001 6.76683C8.55001 6.90683 8.17999 7.32686 8.17999 7.92686V8.93687V9.61686V13.7668" stroke="#505050" stroke-width="1.5" stroke-linecap="round" stroke-linejoin="round"/>
<path d="M12.03 14.2469C12.8308 14.2469 13.48 13.5977 13.48 12.7969C13.48 11.9961 12.8308 11.3469 12.03 11.3469C11.2292 11.3469 10.58 11.9961 10.58 12.7969C10.58 13.5977 11.2292 14.2469 12.03 14.2469Z" stroke="#505050" stroke-width="1.5" stroke-linecap="round" stroke-linejoin="round"/>
<path d="M8.17004 9.62689L13.48 8.17688" stroke="#505050" stroke-width="1.5" stroke-linecap="round" stroke-linejoin="round"/>
<path d="M17.94 22.0769C19.7073 22.0769 21.14 20.6442 21.14 18.8769C21.14 17.1096 19.7073 15.6769 17.94 15.6769C16.1727 15.6769 14.74 17.1096 14.74 18.8769C14.74 20.6442 16.1727 22.0769 17.94 22.0769Z" stroke="#505050" stroke-width="1.5" stroke-linecap="round" stroke-linejoin="round"/>
<path d="M21.74 22.6769L20.74 21.6769" stroke="#505050" stroke-width="1.5" stroke-linecap="round" stroke-linejoin="round"/>
</svg>
