<svg width="30" height="31" viewBox="0 0 30 31" fill="none" xmlns="http://www.w3.org/2000/svg">
<line y1="30" x2="30" y2="30" stroke="#E98EAD" stroke-width="2"/>
<path d="M6 17.9799L8.54999 17.9899C9.45999 17.9899 10.31 17.5399 10.81 16.7899L17.2 7.20994C17.7 6.45994 18.55 5.99993 19.46 6.00993L24.01 6.02994L22 8M24 17.9799L22 16" stroke="#E98EAD" stroke-width="2" stroke-linecap="round" stroke-linejoin="round"/>
<path d="M22 19.98L24 17.98" stroke="#E98EAD" stroke-width="2" stroke-linecap="round" stroke-linejoin="round"/>
<path d="M11.89 8.62017L10.81 7.12017C10.3 6.41017 9.47999 5.99017 8.60999 6.00017L6 6.01018" stroke="#E98EAD" stroke-width="2" stroke-linecap="round" stroke-linejoin="round"/>
<path d="M15.97 15.3799L17.19 16.9499C17.7 17.6099 18.5 17.9999 19.34 17.9999L24.01 17.9799" stroke="#E98EAD" stroke-width="2" stroke-linecap="round" stroke-linejoin="round"/>
<path d="M24 6.02002L22 4.02002" stroke="#E98EAD" stroke-width="2" stroke-linecap="round" stroke-linejoin="round"/>
</svg>
