<svg width="24" height="25" viewBox="0 0 24 25" fill="none" xmlns="http://www.w3.org/2000/svg">
<path d="M18.14 22.4169C17.26 22.6769 16.22 22.7969 15 22.7969H8.99998C7.77998 22.7969 6.73999 22.6769 5.85999 22.4169C6.07999 19.8169 8.74998 17.7668 12 17.7668C15.25 17.7668 17.92 19.8169 18.14 22.4169Z" stroke="#505050" stroke-width="1.5" stroke-linecap="round" stroke-linejoin="round"/>
<path d="M15 2.79688H9C4 2.79688 2 4.79688 2 9.79688V15.7969C2 19.5769 3.14 21.6469 5.86 22.4169C6.08 19.8169 8.75 17.7668 12 17.7668C15.25 17.7668 17.92 19.8169 18.14 22.4169C20.86 21.6469 22 19.5769 22 15.7969V9.79688C22 4.79688 20 2.79688 15 2.79688ZM12 14.9669C10.02 14.9669 8.42 13.3569 8.42 11.3769C8.42 9.39689 10.02 7.79688 12 7.79688C13.98 7.79688 15.58 9.39689 15.58 11.3769C15.58 13.3569 13.98 14.9669 12 14.9669Z" stroke="#505050" stroke-width="1.5" stroke-linecap="round" stroke-linejoin="round"/>
<path d="M15.58 11.3769C15.58 13.3569 13.98 14.9669 12 14.9669C10.02 14.9669 8.41998 13.3569 8.41998 11.3769C8.41998 9.39689 10.02 7.79688 12 7.79688C13.98 7.79688 15.58 9.39689 15.58 11.3769Z" stroke="#505050" stroke-width="1.5" stroke-linecap="round" stroke-linejoin="round"/>
</svg>
