<svg width="15" height="15" viewBox="0 0 15 15" fill="none" xmlns="http://www.w3.org/2000/svg">
<path d="M1.25 6.24999V8.74999C1.25 9.99999 1.875 10.625 3.125 10.625H4.01875C4.25 10.625 4.48125 10.6937 4.68125 10.8125L6.50625 11.9562C8.08125 12.9437 9.375 12.225 9.375 10.3687V4.63124C9.375 2.76874 8.08125 2.05624 6.50625 3.04374L4.68125 4.18749C4.48125 4.30624 4.25 4.37499 4.01875 4.37499H3.125C1.875 4.37499 1.25 4.99999 1.25 6.24999Z" stroke="white"/>
<path d="M11.25 5C12.3625 6.48125 12.3625 8.51875 11.25 10" stroke="white" stroke-linecap="round" stroke-linejoin="round"/>
<path d="M12.3938 3.4375C14.2 5.84375 14.2 9.15625 12.3938 11.5625" stroke="white" stroke-linecap="round" stroke-linejoin="round"/>
</svg>
